<?xml version="1.0" standalone="no"?>
<!DOCTYPE svg PUBLIC "-//W3C//DTD SVG 20010904//EN"
 "http://www.w3.org/TR/2001/REC-SVG-20010904/DTD/svg10.dtd">
<svg version="1.0" xmlns="http://www.w3.org/2000/svg"
 width="256.000000pt" height="256.000000pt" viewBox="0 0 256.000000 256.000000"
 preserveAspectRatio="xMidYMid meet">
<metadata>
Created by potrace 1.11, written by Peter Selinger 2001-2013
</metadata>
<g transform="translate(0.000000,256.000000) scale(0.100000,-0.100000)"
fill="#000000" stroke="none">
<path d="M845 2399 c-350 -50 -657 -307 -763 -639 -37 -117 -46 -182 -46 -330
2 -276 77 -476 251 -660 167 -178 369 -257 627 -248 106 4 134 9 228 41 257
87 451 220 515 353 24 49 36 62 88 90 62 35 134 46 136 22 1 -7 2 -155 3 -328
1 -293 2 -315 19 -314 9 0 135 1 278 2 l262 2 -7 32 c-9 44 -21 50 -96 44
-281 -24 -294 -23 -309 32 -21 75 -11 515 12 538 3 3 52 -2 110 -10 178 -27
286 -16 351 35 57 45 20 72 -55 39 -93 -39 -303 -45 -381 -10 l-25 12 -6 491
c-4 271 -3 510 1 532 l7 40 80 0 c44 0 136 -4 204 -8 109 -7 123 -6 112 7 -22
26 -106 47 -228 56 -160 13 -262 12 -297 -3 l-29 -13 2 -547 c2 -445 0 -548
-11 -551 -7 -2 -59 -18 -115 -36 l-103 -32 -29 -52 c-67 -116 -209 -238 -348
-299 -184 -81 -410 -97 -588 -40 -230 73 -398 269 -471 548 -22 85 -27 123
-28 250 0 89 5 181 13 225 61 339 263 577 558 662 66 19 102 23 233 22 145 0
159 -1 225 -27 146 -57 265 -164 326 -290 109 -230 16 -541 -189 -635 -48 -22
-72 -26 -152 -26 -107 -1 -152 15 -228 80 -69 59 -95 113 -100 209 -6 113 24
167 107 190 26 8 36 16 36 30 0 28 -68 33 -113 9 -68 -36 -110 -190 -83 -301
37 -150 218 -283 383 -283 171 0 375 125 448 274 93 191 41 443 -128 610 -80
78 -119 106 -215 151 -126 59 -299 79 -472 54z"/>
</g>
</svg>
